<svg width="71" height="77" viewBox="0 0 71 77" fill="none" xmlns="http://www.w3.org/2000/svg">
<path d="M26.25 11.8945C25.8672 11.8945 25.5938 11.6211 25.5391 11.2656C24.8828 7.41016 24.9375 7.4375 20.9453 6.64453C20.5352 6.5625 20.2891 6.28906 20.2891 5.93359C20.2891 5.55078 20.5352 5.27734 20.9453 5.22266C24.9375 4.53906 24.8555 4.51172 25.5391 0.628906C25.5938 0.246094 25.8672 0 26.25 0C26.6328 0 26.9062 0.246094 26.9883 0.65625C27.6445 4.40234 27.5898 4.40234 31.582 5.22266C31.9648 5.30469 32.2383 5.55078 32.2383 5.93359C32.2383 6.31641 31.9648 6.5625 31.5273 6.64453C27.6172 7.35547 27.6172 7.38281 26.9883 11.2383C26.9062 11.6484 26.6328 11.8945 26.25 11.8945ZM46.375 19.1133C45.8555 19.1133 45.418 18.7031 45.3906 18.1836C44.543 12.0586 44.4336 12.1133 37.9805 10.8008C37.4336 10.7188 37.0781 10.3359 37.0781 9.76172C37.0781 9.24219 37.4609 8.80469 38.0078 8.75C44.4062 7.875 44.5703 7.68359 45.3906 1.39453C45.418 0.847656 45.8555 0.464844 46.375 0.464844C46.9766 0.464844 47.3867 0.847656 47.4414 1.44922C48.1797 7.54688 48.4258 7.46484 54.8242 8.75C55.3711 8.83203 55.7539 9.24219 55.7539 9.76172C55.7539 10.3633 55.3711 10.7188 54.7148 10.8008C48.4258 11.7852 48.1797 12.0039 47.4414 18.1016C47.3867 18.7031 46.9766 19.1133 46.375 19.1133ZM23.3242 66.7734L3.77344 47.2227C2.37891 45.8008 2.37891 43.668 3.77344 42.2461C5.16797 40.8516 7.32812 40.8516 8.72266 42.2734L20.918 54.4414C21.1094 53.7305 21.3281 52.9922 21.6016 52.2266L4.12891 34.7539C2.73438 33.3594 2.73438 31.1992 4.12891 29.8047C5.52344 28.4102 7.68359 28.4102 9.07812 29.8047L25.2109 45.9375C25.6211 45.3906 26.0859 44.8164 26.5234 44.2695L8.99609 26.7422C7.60156 25.3203 7.60156 23.2148 8.99609 21.793C10.418 20.3711 12.5508 20.3711 13.9453 21.793L31.6914 39.5117C32.3203 39.1016 32.9219 38.7734 33.5508 38.4727L18.0742 23.0234C16.6797 21.6016 16.6797 19.4688 18.0742 18.0742C19.4688 16.6523 21.6016 16.6523 23.0234 18.0742L43.7227 38.7734C44.2969 39.3477 44.6797 39.2656 44.9805 38.9922C45.2266 38.7188 45.2812 38.3359 45.0078 37.5977L41.6719 28.8203C40.8242 26.4688 41.043 24.6367 42.7383 23.4062C44.1875 22.3125 46.0195 22.6133 47.1406 24.1445C48.1523 25.5117 49.9844 29.1484 51.4609 31.9648C53.457 35.8203 57.0117 42.4922 57.832 48.1523C59.2812 55.207 57.5586 61.1406 52.0352 66.6914C43.8867 74.8398 32.2656 75.6875 23.3242 66.7734ZM38.6094 21.957C37.9258 23.2148 37.543 24.6641 37.4609 26.2227L29.5586 18.3203C29.6133 18.2109 29.6953 18.1289 29.7773 18.0469C31.1719 16.6523 33.2773 16.6523 34.7266 18.0742L38.6094 21.957ZM63.7109 66.6914C60.1289 70.2734 55.8359 72.4609 51.4062 72.9805C52.7188 72.0781 53.9492 71.0117 55.1797 69.8086C61.5781 63.4375 63.875 56.1367 62.1797 47.5508C61.332 41.2344 57.5586 33.9883 55.5898 30.2695C54.7148 28.6289 53.8672 26.9336 52.9922 25.293C53.2109 24.5547 53.6758 23.8984 54.4141 23.4062C55.8906 22.3398 57.6953 22.6406 58.8438 24.1719C59.8555 25.4844 61.6875 29.1484 63.1367 31.9648C65.1602 35.8203 68.6875 42.4922 69.5078 48.1523C70.957 55.207 69.2617 61.1406 63.7109 66.6914ZM8.20312 76.4258C7.68359 76.4258 7.35547 76.0977 7.27344 75.6055C6.37109 70.3008 6.45312 70.2734 0.820312 69.1523C0.300781 69.043 0 68.7422 0 68.2227C0 67.7031 0.328125 67.375 0.820312 67.293C6.45312 66.3359 6.34375 66.2539 7.27344 60.8672C7.35547 60.3477 7.68359 60.0195 8.20312 60.0195C8.69531 60.0195 9.05078 60.3477 9.10547 60.8945C10.0078 66.1445 9.95312 66.1719 15.5859 67.293C16.1055 67.4023 16.4062 67.7031 16.4062 68.2227C16.4062 68.7422 16.1055 69.043 15.5312 69.1523C9.98047 70.1641 9.98047 70.2188 9.10547 75.5781C9.05078 76.0977 8.69531 76.4258 8.20312 76.4258Z" fill="#45CEAD"/>
</svg>
